<svg width="31" height="30" viewBox="0 0 31 30" fill="none" xmlns="http://www.w3.org/2000/svg">
<path opacity="0.1" d="M26 9.67395L7.58859 28.0592C6.98545 28.6614 6.16596 29 5.31129 29H2.61326C1.72228 29 1 28.2752 1 27.389V24.6821C1 23.8364 1.33688 23.0252 1.9369 22.4261L20.3892 4C20.4044 4.07426 20.4409 4.14506 20.4988 4.20266L25.9915 9.6657C25.9943 9.6685 25.9971 9.67125 26 9.67395Z" fill="#323232"/>
<path d="M28.4938 7.83547L7.24228 28.436C6.86915 28.7977 6.36989 29 5.85023 29L2.61728 29H2.56775C1.70191 29 1 28.2981 1 27.4323V24.3596C1 23.8184 1.21935 23.3003 1.60795 22.9236L22.8333 2.34836C27.6852 -1.571 32.5371 3.91608 28.4938 7.83547Z" stroke="#323232" stroke-width="2" stroke-linecap="round" stroke-linejoin="round"/>
<path d="M21 4L26 10" stroke="#323232" stroke-width="2" stroke-linecap="round" stroke-linejoin="round"/>
</svg>
