<svg width="16" height="15" viewBox="0 0 16 15" fill="none" xmlns="http://www.w3.org/2000/svg">
<path d="M15.1022 13.6188L10.4647 8.98129C11.1844 8.05093 11.5737 6.91343 11.5737 5.71701C11.5737 4.28486 11.0147 2.94201 10.004 1.92951C8.9933 0.917006 7.64688 0.359863 6.21652 0.359863C4.78616 0.359863 3.43973 0.918792 2.42902 1.92951C1.41652 2.94022 0.859375 4.28486 0.859375 5.71701C0.859375 7.14736 1.4183 8.49379 2.42902 9.50451C3.43973 10.517 4.78438 11.0741 6.21652 11.0741C7.41295 11.0741 8.54866 10.6849 9.47902 9.96701L14.1165 14.6027C14.1301 14.6163 14.1463 14.6271 14.164 14.6345C14.1818 14.6418 14.2009 14.6456 14.2201 14.6456C14.2393 14.6456 14.2584 14.6418 14.2761 14.6345C14.2939 14.6271 14.3101 14.6163 14.3237 14.6027L15.1022 13.8259C15.1158 13.8123 15.1266 13.7962 15.134 13.7784C15.1414 13.7606 15.1452 13.7416 15.1452 13.7224C15.1452 13.7031 15.1414 13.6841 15.134 13.6663C15.1266 13.6485 15.1158 13.6324 15.1022 13.6188ZM9.04509 8.54558C8.28795 9.30094 7.28438 9.71701 6.21652 9.71701C5.14866 9.71701 4.14509 9.30094 3.38795 8.54558C2.63259 7.78844 2.21652 6.78486 2.21652 5.71701C2.21652 4.64915 2.63259 3.64379 3.38795 2.88843C4.14509 2.13308 5.14866 1.71701 6.21652 1.71701C7.28438 1.71701 8.28973 2.13129 9.04509 2.88843C9.80045 3.64558 10.2165 4.64915 10.2165 5.71701C10.2165 6.78486 9.80045 7.79022 9.04509 8.54558Z" fill="black" fill-opacity="0.45"/>
</svg>
