<svg width="56" height="56" viewBox="0 0 56 56" fill="none" xmlns="http://www.w3.org/2000/svg">
<path d="M53.002 8.00378H16.502C16.227 8.00378 16.002 8.22878 16.002 8.50378V12.0038C16.002 12.2788 16.227 12.5038 16.502 12.5038H53.002C53.277 12.5038 53.502 12.2788 53.502 12.0038V8.50378C53.502 8.22878 53.277 8.00378 53.002 8.00378ZM53.002 25.7538H16.502C16.227 25.7538 16.002 25.9788 16.002 26.2538V29.7538C16.002 30.0288 16.227 30.2538 16.502 30.2538H53.002C53.277 30.2538 53.502 30.0288 53.502 29.7538V26.2538C53.502 25.9788 53.277 25.7538 53.002 25.7538ZM53.002 43.5038H16.502C16.227 43.5038 16.002 43.7288 16.002 44.0038V47.5038C16.002 47.7788 16.227 48.0038 16.502 48.0038H53.002C53.277 48.0038 53.502 47.7788 53.502 47.5038V44.0038C53.502 43.7288 53.277 43.5038 53.002 43.5038ZM2.50195 10.2538C2.50195 10.7134 2.59248 11.1685 2.76837 11.5932C2.94427 12.0178 3.20207 12.4037 3.52708 12.7287C3.85208 13.0537 4.23792 13.3115 4.66256 13.4874C5.0872 13.6633 5.54233 13.7538 6.00195 13.7538C6.46158 13.7538 6.91671 13.6633 7.34135 13.4874C7.76599 13.3115 8.15182 13.0537 8.47683 12.7287C8.80183 12.4037 9.05964 12.0178 9.23553 11.5932C9.41142 11.1685 9.50195 10.7134 9.50195 10.2538C9.50195 9.79416 9.41142 9.33903 9.23553 8.91439C9.05964 8.48975 8.80183 8.10392 8.47683 7.77891C8.15182 7.45391 7.76599 7.1961 7.34135 7.02021C6.91671 6.84431 6.46158 6.75378 6.00195 6.75378C5.54233 6.75378 5.0872 6.84431 4.66256 7.02021C4.23792 7.1961 3.85208 7.45391 3.52708 7.77891C3.20207 8.10392 2.94427 8.48975 2.76837 8.91439C2.59248 9.33903 2.50195 9.79416 2.50195 10.2538ZM2.50195 28.0038C2.50195 28.4634 2.59248 28.9185 2.76837 29.3432C2.94427 29.7678 3.20207 30.1537 3.52708 30.4787C3.85208 30.8037 4.23792 31.0615 4.66256 31.2374C5.0872 31.4133 5.54233 31.5038 6.00195 31.5038C6.46158 31.5038 6.91671 31.4133 7.34135 31.2374C7.76599 31.0615 8.15182 30.8037 8.47683 30.4787C8.80183 30.1537 9.05964 29.7678 9.23553 29.3432C9.41142 28.9185 9.50195 28.4634 9.50195 28.0038C9.50195 27.5442 9.41142 27.089 9.23553 26.6644C9.05964 26.2398 8.80183 25.8539 8.47683 25.5289C8.15182 25.2039 7.76599 24.9461 7.34135 24.7702C6.91671 24.5943 6.46158 24.5038 6.00195 24.5038C5.54233 24.5038 5.0872 24.5943 4.66256 24.7702C4.23792 24.9461 3.85208 25.2039 3.52708 25.5289C3.20207 25.8539 2.94427 26.2398 2.76837 26.6644C2.59248 27.089 2.50195 27.5442 2.50195 28.0038ZM2.50195 45.7538C2.50195 46.2134 2.59248 46.6685 2.76837 47.0932C2.94427 47.5178 3.20207 47.9037 3.52708 48.2287C3.85208 48.5537 4.23792 48.8115 4.66256 48.9874C5.0872 49.1633 5.54233 49.2538 6.00195 49.2538C6.46158 49.2538 6.91671 49.1633 7.34135 48.9874C7.76599 48.8115 8.15182 48.5537 8.47683 48.2287C8.80183 47.9037 9.05964 47.5178 9.23553 47.0932C9.41142 46.6685 9.50195 46.2134 9.50195 45.7538C9.50195 45.2942 9.41142 44.839 9.23553 44.4144C9.05964 43.9897 8.80183 43.6039 8.47683 43.2789C8.15182 42.9539 7.76599 42.6961 7.34135 42.5202C6.91671 42.3443 6.46158 42.2538 6.00195 42.2538C5.54233 42.2538 5.0872 42.3443 4.66256 42.5202C4.23792 42.6961 3.85208 42.9539 3.52708 43.2789C3.20207 43.6039 2.94427 43.9897 2.76837 44.4144C2.59248 44.839 2.50195 45.2942 2.50195 45.7538Z" fill="black" fill-opacity="0.85"/>
</svg>
