<svg width="62" height="62" viewBox="0 0 62 62" fill="none" xmlns="http://www.w3.org/2000/svg">
<g clip-path="url(#clip0_50_1827)">
<path d="M53.1411 0H8.8554C7.63062 0 6.64111 0.989509 6.64111 2.21429V59.7857C6.64111 61.0105 7.63062 62 8.8554 62H53.1411C54.3659 62 55.3554 61.0105 55.3554 59.7857V2.21429C55.3554 0.989509 54.3659 0 53.1411 0ZM35.15 4.98214H41.7929V19.5065L38.5753 17.1607L35.15 19.6103V4.98214ZM50.3733 57.0179H11.6233V4.98214H30.9983V25.5266C30.9983 25.7549 31.0675 25.9833 31.2058 26.1701C31.2899 26.2888 31.3966 26.3898 31.5198 26.467C31.6431 26.5442 31.7805 26.5963 31.924 26.6201C32.0675 26.6439 32.2143 26.639 32.3559 26.6057C32.4975 26.5724 32.6311 26.5114 32.7489 26.4261L38.5476 22.2812L44.1802 26.3915C44.367 26.5299 44.5954 26.606 44.8306 26.606C45.4396 26.606 45.9378 26.1078 45.9378 25.4989V4.98214H50.3663V57.0179H50.3733Z" fill="black" fill-opacity="0.85"/>
</g>
<defs>
<clipPath id="clip0_50_1827">
<rect width="62" height="62" fill="white"/>
</clipPath>
</defs>
</svg>
