<svg width="52" height="50" viewBox="0 0 52 50" fill="none" xmlns="http://www.w3.org/2000/svg">
<path d="M46.553 37.7907H42.3894C42.1051 37.7907 41.8386 37.9128 41.6609 38.1279C41.2464 38.6221 40.8022 39.0989 40.3343 39.5523C38.4206 41.4327 36.1539 42.9313 33.6595 43.9651C31.0752 45.0366 28.2976 45.5863 25.4922 45.5814C22.6553 45.5814 19.9072 45.0349 17.3249 43.9651C14.8305 42.9313 12.5638 41.4327 10.6502 39.5523C8.73311 37.6783 7.20449 35.4571 6.14898 33.0117C5.0533 30.4768 4.5025 27.7849 4.5025 25C4.5025 22.2152 5.05922 19.5233 6.14898 16.9884C7.20321 14.5408 8.71939 12.3373 10.6502 10.4477C12.5809 8.55821 14.8256 7.06984 17.3249 6.03496C19.9072 4.9652 22.6553 4.41868 25.4922 4.41868C28.3292 4.41868 31.0772 4.95938 33.6595 6.03496C36.1588 7.06984 38.4035 8.55821 40.3343 10.4477C40.8022 10.907 41.2404 11.3838 41.6609 11.8722C41.8386 12.0873 42.1111 12.2094 42.3894 12.2094H46.553C46.9261 12.2094 47.1571 11.8024 46.9498 11.4943C42.4072 4.56403 34.459 -0.0231678 25.4271 8.80154e-05C11.2365 0.0349717 -0.140825 11.3431 0.00131751 25.2559C0.14346 38.9477 11.503 50 25.4922 50C34.5005 50 42.4131 45.4186 46.9498 38.5058C47.1512 38.1977 46.9261 37.7907 46.553 37.7907ZM51.8182 24.6338L43.414 18.1222C43.1001 17.878 42.6441 18.0989 42.6441 18.4884V22.907H24.0471C23.7865 22.907 23.5733 23.1163 23.5733 23.3721V26.6279C23.5733 26.8838 23.7865 27.0931 24.0471 27.0931H42.6441V31.5117C42.6441 31.9012 43.1061 32.1221 43.414 31.8779L51.8182 25.3663C51.8748 25.3228 51.9206 25.2672 51.9521 25.2038C51.9836 25.1403 52 25.0706 52 25C52 24.9295 51.9836 24.8598 51.9521 24.7963C51.9206 24.7329 51.8748 24.6773 51.8182 24.6338Z" fill="#FF0000"/>
</svg>
