<svg width="79" height="79" viewBox="0 0 79 79" fill="none" xmlns="http://www.w3.org/2000/svg">
<path d="M60.7907 55.0477C59.6316 52.2865 57.9496 49.7785 55.8382 47.6632C53.7333 45.5418 51.2398 43.8505 48.4954 42.6825C48.4709 42.6702 48.4463 42.664 48.4217 42.6516C52.2498 39.8709 54.7383 35.3413 54.7383 30.2309C54.7383 21.765 47.9178 14.9058 39.4998 14.9058C31.0817 14.9058 24.2612 21.765 24.2612 30.2309C24.2612 35.3413 26.7498 39.8709 30.5778 42.6578C30.5533 42.6702 30.5287 42.6764 30.5041 42.6887C27.7513 43.8566 25.2812 45.5313 23.1613 47.6694C21.052 49.7863 19.3702 52.2939 18.2088 55.0539C17.0679 57.7559 16.4526 60.6527 16.3961 63.5877C16.3945 63.6537 16.406 63.7193 16.43 63.7807C16.4539 63.8421 16.4899 63.8981 16.5357 63.9453C16.5815 63.9925 16.6363 64.03 16.6967 64.0557C16.7572 64.0813 16.8221 64.0945 16.8877 64.0944H20.5745C20.8448 64.0944 21.0599 63.8782 21.066 63.6124C21.1889 58.8419 23.0937 54.3741 26.461 50.9878C29.9449 47.484 34.5718 45.556 39.4998 45.556C44.4277 45.556 49.0546 47.484 52.5386 50.9878C55.9058 54.3741 57.8106 58.8419 57.9335 63.6124C57.9397 63.8843 58.1547 64.0944 58.4251 64.0944H62.1118C62.1774 64.0945 62.2424 64.0813 62.3028 64.0557C62.3633 64.03 62.418 63.9925 62.4638 63.9453C62.5096 63.8981 62.5456 63.8421 62.5696 63.7807C62.5935 63.7193 62.605 63.6537 62.6034 63.5877C62.5419 60.6339 61.9336 57.7605 60.7907 55.0477ZM39.4998 40.8596C36.6794 40.8596 34.0249 39.7535 32.028 37.7451C30.031 35.7368 28.9311 33.0673 28.9311 30.2309C28.9311 27.3945 30.031 24.725 32.028 22.7166C34.0249 20.7083 36.6794 19.6022 39.4998 19.6022C42.3201 19.6022 44.9746 20.7083 46.9716 22.7166C48.9686 24.725 50.0684 27.3945 50.0684 30.2309C50.0684 33.0673 48.9686 35.7368 46.9716 37.7451C44.9746 39.7535 42.3201 40.8596 39.4998 40.8596Z" fill="black"/>
</svg>
