<svg width="16" height="17" viewBox="0 0 16 17" fill="none" xmlns="http://www.w3.org/2000/svg">
<path d="M8 1.5C4.13438 1.5 1 4.63438 1 8.5C1 12.3656 4.13438 15.5 8 15.5C11.8656 15.5 15 12.3656 15 8.5C15 4.63438 11.8656 1.5 8 1.5ZM10.5844 11.1594L9.55313 11.1547L8 9.30313L6.44844 11.1531L5.41563 11.1578C5.34688 11.1578 5.29063 11.1031 5.29063 11.0328C5.29063 11.0031 5.30156 10.975 5.32031 10.9516L7.35313 8.52969L5.32031 6.10938C5.30143 6.08647 5.29096 6.0578 5.29063 6.02812C5.29063 5.95937 5.34688 5.90312 5.41563 5.90312L6.44844 5.90781L8 7.75938L9.55156 5.90938L10.5828 5.90469C10.6516 5.90469 10.7078 5.95937 10.7078 6.02969C10.7078 6.05937 10.6969 6.0875 10.6781 6.11094L8.64844 8.53125L10.6797 10.9531C10.6984 10.9766 10.7094 11.0047 10.7094 11.0344C10.7094 11.1031 10.6531 11.1594 10.5844 11.1594Z" fill="black" fill-opacity="0.25"/>
</svg>
